<svg width="16" height="16" viewBox="0 0 16 16" fill="none" xmlns="http://www.w3.org/2000/svg">
<path d="M2 10.5L1.46967 9.96967L1.32278 10.1166L1.27239 10.3181L2 10.5ZM11.5 1L11.8354 0.32918L11.3519 0.0874296L10.9697 0.46967L11.5 1ZM14.5 4L15.0303 4.53033L15.4126 4.14809L15.1708 3.66459L14.5 4ZM5 13.5L5.1819 14.2276L5.38344 14.1772L5.53033 14.0303L5 13.5ZM1 14.5L0.272393 14.3181C0.208498 14.5737 0.283385 14.844 0.46967 15.0303C0.655955 15.2166 0.92632 15.2915 1.1819 15.2276L1 14.5ZM13.5 2L14.1708 1.66459L14.059 1.44098L13.8354 1.32918L13.5 2ZM2.53033 11.0303L12.0303 1.53033L10.9697 0.46967L1.46967 9.96967L2.53033 11.0303ZM13.9697 3.46967L4.46967 12.9697L5.53033 14.0303L15.0303 4.53033L13.9697 3.46967ZM4.8181 12.7724L0.818098 13.7724L1.1819 15.2276L5.1819 14.2276L4.8181 12.7724ZM1.72761 14.6819L2.72761 10.6819L1.27239 10.3181L0.272393 14.3181L1.72761 14.6819ZM11.1646 1.67082L13.1646 2.67082L13.8354 1.32918L11.8354 0.32918L11.1646 1.67082ZM12.8292 2.33541L13.8292 4.33541L15.1708 3.66459L14.1708 1.66459L12.8292 2.33541Z" fill="#202840"/>
<path d="M10 3.5L12 5.5" stroke="#202840" stroke-width="1.5"/>
<path d="M3 10.5L5 12.5" stroke="#202840" stroke-width="1.5"/>
</svg>
